/* XPM */
static char *a0abf2d8550b4988d16f9b5953af240c1ODMacj9TddNcz6M[] = {
/* columns rows colors chars-per-pixel */
"32 32 39 1 ",
"  c #6E924D",
". c #6D914D",
"X c #6A8E4B",
"o c black",
"O c #698D4B",
"+ c #6B904C",
"@ c #5C8245",
"# c #743F39",
"$ c #70944E",
"% c #B86F50",
"& c #71954E",
"* c #7EA552",
"= c #72964E",
"- c #81A853",
"; c #72974E",
": c #769B50",
"> c #73984F",
", c #6E934D",
"< c #7CA352",
"1 c #6F934D",
"2 c #7DA452",
"3 c #789E50",
"4 c #72964F",
"5 c #74994F",
"6 c #7CA351",
"7 c #6C904C",
"8 c #668B4A",
"9 c #5C8145",
"0 c #668A4A",
"q c #70954E",
"w c #6A8F4B",
"e c #71964E",
"r c #7EA452",
"t c #80A853",
"y c #81A854",
"u c #72974F",
"i c #83AB54",
"p c #759B50",
"a c #7EA553",
/* pixels */
"                                ",
"                                ",
"                                ",
"                                ",
"                  .X            ",
"         ooooo    Oooooo        ",
"         ooooo   +@ooooo        ",
"        o#####ooooo#####o       ",
"        o###ooooooooo###o       ",
"        o###ooooooooo###o       ",
"      oo#oo###o###o###oo#oo     ",
"   $ oooo%%#%%%###%%%#%%oooo    ",
"  &*&oooo%%#%%%###%%%#%%oooo    ",
"  =-;ooo%%%%%%%%%%%%%%%%%ooo    ",
"  =-:o##%##%%%%%%%%%%%##%##o    ",
"  &*:o#####%%%%%%%%%%%#####o    ",
"   &>o#####%%%%%%%%%%%#####o    ",
"     o###%%%%%#%%%#%%%%%###o    ",
"     o##o%%%###%%%###%%%o##o,&  ",
"     o##o%%%###%%%###%%%o##o><>1",
"     o##ooo%%%#ooo#%%%ooo##o23*4",
"      oo#oo#%%ooooo%%#oo#oo15651",
"      oo#oo#%%ooooo%%#oo#oo 1&1 ",
"      oo####ooo###ooo####oo     ",
"      oo###ooooooooooo###oo     ",
"      oo###ooooooooooo###oo     ",
"     7oo#oo#oo     oo#oo#oo     ",
"      890.            q         ",
"      .w.           &erq        ",
"                   =t:y&        ",
"                   uipaq        ",
"                   ui>e,        "
};
