/* XPM */
static char *_643724825348[] = {
/* columns rows colors chars-per-pixel */
"32 32 4 1 ",
"  c #6E924D",
". c #4D733E",
"X c #87B055",
"o c black",
/* pixels */
"           .                    ",
"           .                    ",
"                                ",
"         X               X      ",
"         XX               .X    ",
"          .               .     ",
"         ..    ..     .         ",
" ..    .oooooooooo. oooo..      ",
"       .oooooooooooooooooo      ",
"    X  oooooooooooooooooo.      ",
"  X X  .oooooooooooooooooo      ",
"  .X    ooooooooooooooooo.  X   ",
"       ooooooooooooooooo.  XX   ",
"        oooooooooooooooo.       ",
"       .ooooooooooooooooo.      ",
"       ooooooooooooooooooo      ",
"       .oooooooooooooooooo      ",
"        ooooooooooooooooo.      ",
"        .oooooooooooooooo.      ",
"       .ooooooooooooooooo.      ",
"       .ooooooooooooooooo.      ",
"       ooooooooooooooooooo     X",
"       .oooooooooooooooooo   X. ",
"       .ooooo.ooooooooooo.    . ",
"        ..o..  .oo....oo.o      ",
"                     .          ",
"                     .          ",
"    X                           ",
"     .X                X        ",
"     .                XX        ",
"                      .         ",
"                                "
};
