/* XPM */
static char *_d0d658a3d084d86c4c05efb7288e42aDV5VnM4eFjwuSWPd[] = {
/* columns rows colors chars-per-pixel */
"32 32 42 1 ",
"  c #6E924D",
". c #6D914D",
"X c #6A8E4B",
"o c black",
"O c #698D4B",
"+ c #6B904C",
"@ c #5C8245",
"# c #B86F50",
"$ c #743F39",
"% c #70944E",
"& c #71954E",
"* c #7EA552",
"= c #72964E",
"- c #81A853",
"; c #72974E",
": c white",
"> c #E8B796",
", c #769B50",
"< c #73984F",
"1 c #C28569",
"2 c #6E934D",
"3 c #7CA352",
"4 c #6F934D",
"5 c #7DA452",
"6 c #789E50",
"7 c #72964F",
"8 c #74994F",
"9 c #7CA351",
"0 c #6C904C",
"q c #668B4A",
"w c #5C8145",
"e c #668A4A",
"r c #70954E",
"t c #6A8F4B",
"y c #71964E",
"u c #7EA452",
"i c #80A853",
"p c #81A854",
"a c #72974F",
"s c #83AB54",
"d c #759B50",
"f c #7EA553",
/* pixels */
"                                ",
"                                ",
"                                ",
"                                ",
"                  .X            ",
"         ooooo    Oooooo        ",
"         ooooo   +@ooooo        ",
"        o###$$ooooo$$###o       ",
"        o##o$$#$$$#$$o##o       ",
"        o##o$$#$$$#$$o##o       ",
"      ooo$$$#########$$$ooo     ",
"   % o$$ooo####$$$####ooo$$o    ",
"  &*&o$$ooo####$$$####ooo$$o    ",
"  =-;o$$o$$o::o>>>o::o$$o$$o    ",
"  =-,o$$o##ooo>>>>>ooo##o$$o    ",
"  &*,o$$o##ooo>>>>>ooo##o$$o    ",
"   &<o$$$###$$>ooo>$$###$$$o    ",
"     o$$#$$#$$>111>$$#$$#$$o    ",
"     ooo###$ooooooooo$###ooo2&  ",
"     ooo###$ooooooooo$###ooo<3<4",
"     o$$$###$$ooooo$$###$$$o56*7",
"      oo#oo$$$$$$$$$$$oo#oo48984",
"      oo#oo$$$$$$$$$$$oo#oo 4&4 ",
"      oo###o$$o$$$o$$o###oo     ",
"      ooo##$ooooooooo$##ooo     ",
"      ooo##$ooooooooo$##ooo     ",
"     0oo$oo$oo     oo$oo$oo     ",
"      qwe.            r         ",
"      .t.           &yur        ",
"                   =i,p&        ",
"                   asdfr        ",
"                   as<y2        "
};
