/* XPM */
static char *_968371782614669a5e917235fff3595uSQt4kTLWR2slnDN[] = {
/* columns rows colors chars-per-pixel */
"32 32 62 1 ",
"  c #6E924D",
". c #6D914D",
"X c #6A8E4B",
"o c #698D4B",
"O c #5D8245",
"+ c #698E4B",
"@ c #6B904C",
"# c #5C8245",
"$ c #618647",
"% c #5B8044",
"& c #6B8F4B",
"* c #688D4B",
"= c black",
"- c #EA9B33",
"; c #FFB43F",
": c #70944E",
"> c #170625",
", c #D27E26",
"< c #B85F1C",
"1 c #71954E",
"2 c #7EA552",
"3 c #FFC600",
"4 c #FFE825",
"5 c #F6A800",
"6 c #72964E",
"7 c #81A853",
"8 c #72974E",
"9 c #71964E",
"0 c #95451A",
"q c #FFD800",
"w c #FFFD2C",
"e c #769B50",
"r c #73984F",
"t c #7EA452",
"y c #597146",
"u c #82320D",
"i c #A7521B",
"p c #4A5940",
"a c #6E934D",
"s c #6F934D",
"d c #7CA352",
"f c #C66F22",
"g c #7DA452",
"h c #789E50",
"j c #72964F",
"k c #74994F",
"l c #7CA351",
"z c #688C4A",
"x c #678B4A",
"c c #6C904C",
"v c #5C8145",
"b c #6B8F4C",
"n c #668B4A",
"m c #668A4A",
"M c #70954E",
"N c #6A8F4B",
"B c #80A853",
"V c #81A854",
"C c #72974F",
"Z c #83AB54",
"A c #759B50",
"S c #7EA553",
/* pixels */
"                                ",
"                                ",
"                                ",
"                                ",
"                  .X            ",
"                  oO+           ",
"                 @#$%&          ",
"                  *#o.          ",
"             ========           ",
"          ===-;;;;-===          ",
"          ===-;;;;-===          ",
"   :     >,--<,,,,<--,>         ",
"  121  >>,<<<344435<<<,>>       ",
"  6789>,,05qqwqwww43350,,>      ",
"  67e2>,,54wwww444w4435,,>      ",
"  12e7>00,q444wwww4335,00>      ",
"   1rt9>>0,--q4ww4q--,0>>       ",
"     :y>>u0ii-;;;;-ii0u>>y      ",
"      ypp>u00i<<<<i00u>ppy  a1  ",
"      ypp>u00i<<<<i00u>ppy srdrs",
"       yy>0ii<ffff<ii0>yy  1gh2j",
"         y>>>i<<<<i>>>y    sklks",
"          ypp>>>>>>ppy      s1s ",
"                                ",
"       @.                       ",
"      zOx                       ",
"     cv$vb                      ",
"      nvm.            M         ",
"      .N.           19tM        ",
"                   6BeV1        ",
"                   CZASM        ",
"                   CZr9a        "
};
