/* XPM */
static char *a387b897507d436aab84d6d6246df66b1z1m15ZG2RCyiMAA[] = {
/* columns rows colors chars-per-pixel */
"32 32 41 1 ",
"  c #6E924D",
". c black",
"X c #6A8E4B",
"o c #698E4B",
"O c #5D8245",
"+ c #743F39",
"@ c #B86F50",
"# c #70944E",
"$ c #C28569",
"% c #E8B796",
"& c white",
"* c #71954E",
"= c #7EA552",
"- c #72974E",
"; c #81A853",
": c #72964E",
"> c #769B50",
", c #73984F",
"< c #6E934D",
"1 c #6F934D",
"2 c #7CA352",
"3 c #72964F",
"4 c #789E50",
"5 c #7DA452",
"6 c #74994F",
"7 c #7CA351",
"8 c #6B8F4C",
"9 c #70954E",
"0 c #6D914D",
"q c #668A4A",
"w c #5C8145",
"e c #668B4A",
"r c #7EA452",
"t c #71964E",
"y c #6A8F4B",
"u c #81A854",
"i c #80A853",
"p c #7EA553",
"a c #759B50",
"s c #83AB54",
"d c #72974F",
/* pixels */
"                                ",
"                                ",
"                                ",
"                                ",
"    ...     X....               ",
"    ...    oO....               ",
"    +++......+@@@.              ",
"    +..+++++++.@@...            ",
"    +..+++++++.@@...            ",
"    .@@+++@@@++++.++......      ",
"    .+++..@@@@+...++@..+++.     ",
"    .+++..@@@@+...++@..+++. #   ",
"    .$$%...&&.@@@+++@@@+@@+*=*  ",
"    $%%%%%...+@@@+@@@@@@@@@-;:  ",
"    $%%%%%...+@@@+@@@@@@@@@>;:  ",
"    ...%%%+++@@@@+@@@@@+@@@>=*  ",
"    $$$%$$+++@+++@@@+@@.+++,*   ",
"    $$$%$$+++@+++@@@+@@.+++     ",
"  *<...........@@@+++...@@+     ",
"1,2,1..+.....++++...@..+@@+     ",
"3=45*..+.....++++...@..+@@+     ",
"16761..++++++++...@@@++++++     ",
" 1*1   .++....++++@@....++.     ",
"       .++....++++@@....++.     ",
"       .+++....+++.....+++.     ",
"        ..+.. .++.++.  .++.     ",
"        ..+.. .++.++. 8.++.     ",
"         9            0qwe      ",
"        9rt*           0y0      ",
"        *u>i:                   ",
"        9pasd                   ",
"        <t,sd                   "
};
