/* XPM */
static char *_b542e92ce9f4b05eb766e40c5809f52Uzoy5tL7xaCEixHC[] = {
/* columns rows colors chars-per-pixel */
"32 32 41 1 ",
"  c #6E924D",
". c black",
"X c #6A8E4B",
"o c #5D8245",
"O c #698E4B",
"+ c #B86F50",
"@ c #743F39",
"# c #70944E",
"$ c #71954E",
"% c #7EA552",
"& c white",
"* c #E8B796",
"= c #C28569",
"- c #72964E",
"; c #81A853",
": c #72974E",
"> c #769B50",
", c #73984F",
"< c #6E934D",
"1 c #6F934D",
"2 c #7CA352",
"3 c #7DA452",
"4 c #789E50",
"5 c #72964F",
"6 c #74994F",
"7 c #7CA351",
"8 c #6B8F4C",
"9 c #668B4A",
"0 c #5C8145",
"q c #668A4A",
"w c #6D914D",
"e c #70954E",
"r c #6A8F4B",
"t c #71964E",
"y c #7EA452",
"u c #80A853",
"i c #81A854",
"p c #72974F",
"a c #83AB54",
"s c #759B50",
"d c #7EA553",
/* pixels */
"                                ",
"                                ",
"                                ",
"                                ",
"               ....X     ...    ",
"               ....oO    ...    ",
"              .+++@......@@@    ",
"            ...++.@@@@@@@..@    ",
"            ...++.@@@@@@@..@    ",
"      ......@@.@@@@+++@@@++.    ",
"     .@@@..+@@...@++++..@@@.    ",
"   # .@@@..+@@...@++++..@@@.    ",
"  $%$@++@+++@@@+++.&&...*==.    ",
"  -;:+++++++++@+++@...*****=    ",
"  -;>+++++++++@+++@...*****=    ",
"  $%>+++@+++++@++++@@@***...    ",
"   $,@@@.++@+++@@@+@@@==*===    ",
"     @@@.++@+++@@@+@@@==*===    ",
"     @++...@@@+++...........<$  ",
"     @++@..+...@@@@.....@..1,2,1",
"     @++@..+...@@@@.....@..$34%5",
"     @@@@@@+++...@@@@@@@@..16761",
"     .@@....++@@@@....@@.   1$1 ",
"     .@@....++@@@@....@@.       ",
"     .@@@.....@@@....@@@.       ",
"     .@@.  .@@.@@. ..@..        ",
"     .@@.8 .@@.@@. ..@..        ",
"      90qw            e         ",
"      wrw           $tye        ",
"                   -u>i$        ",
"                   pasde        ",
"                   pa,t<        "
};
