/* XPM */
static char *ed1556952fcd432ffcab70bbc17ab48bTGW28QFGniQVrKcD[] = {
/* columns rows colors chars-per-pixel */
"32 32 138 2 ",
"   c #6E924D",
".  c #91AC78",
"X  c #DCE5D4",
"o  c white",
"O  c #7D9E69",
"+  c #F3F6FE",
"@  c #D7E4FD",
"#  c #85A36A",
"$  c #628B4D",
"%  c #54925A",
"&  c #EAF1FE",
"*  c #789C78",
"=  c #C4D9D5",
"-  c #63A05C",
";  c #BFCFBE",
":  c #97B28D",
">  c #4D9262",
",  c #71A876",
"<  c #6FA958",
"1  c #98C09B",
"2  c #619E7B",
"3  c #CCDFD9",
"4  c #ECF2FE",
"5  c #A1BBBE",
"6  c #5B864D",
"7  c #BACCB8",
"8  c #C0D6D4",
"9  c #7DA87D",
"0  c #E0E9FD",
"q  c #C8DCD9",
"w  c #D0E1E5",
"e  c #55846A",
"r  c #3E734E",
"t  c #42734A",
"y  c #7CA89B",
"u  c #87B770",
"i  c #6AA55A",
"p  c #47865A",
"a  c #4B8D5F",
"s  c #427A53",
"d  c #6C9578",
"f  c #4B8355",
"g  c #E3EEE6",
"h  c #D4E5D9",
"j  c #7FB186",
"k  c #94BE98",
"l  c #ADC4BF",
"z  c #588B6F",
"x  c #497A4E",
"c  c #7FAFA0",
"v  c #B9D2D8",
"b  c #A6C6C5",
"n  c #69A37B",
"m  c #458258",
"M  c #C5D3B8",
"N  c #48875B",
"B  c #B8CBB7",
"V  c #468358",
"C  c #437E55",
"Z  c #78AC88",
"A  c #8BAB95",
"S  c #BACDBF",
"D  c #87B055",
"F  c #84A58C",
"G  c #F7F9FF",
"H  c #BFD8C6",
"J  c #6F9A7C",
"K  c #91B69C",
"L  c #95B6BA",
"P  c #4F7E4E",
"I  c #BCCFD3",
"U  c #DFECD6",
"Y  c #A5C6BF",
"T  c #93B1B6",
"R  c #C7D7E1",
"E  c #407851",
"W  c #668D4D",
"Q  c #517F4E",
"!  c #83A594",
"~  c #608C78",
"^  c #769D94",
"/  c #709C7D",
"(  c #B6CBD3",
")  c #8FBC81",
"_  c #B8D3C0",
"`  c #D6E5E5",
"'  c #6BA487",
"]  c #7AA498",
"[  c #86AA91",
"{  c #9CB593",
"}  c #447F56",
"|  c #498B5D",
" . c #87AD93",
".. c #B2C7B8",
"X. c #B5CEBD",
"o. c #72A180",
"O. c #68A45A",
"+. c #9FBAB7",
"@. c #94BEA1",
"#. c #5D896A",
"$. c #74A091",
"%. c #C3D8E4",
"&. c #CBDBFC",
"*. c #62917B",
"=. c #65977F",
"-. c #74A583",
";. c #7AAC99",
":. c #D1E1E2",
">. c #BFD6D8",
",. c #B7D2C6",
"<. c #88B5A0",
"1. c #99BEBE",
"2. c #58995F",
"3. c #46784E",
"4. c #78A796",
"5. c #424643",
"6. c #45283C",
"7. c #4D733E",
"8. c #695D3C",
"9. c #663931",
"0. c #522F38",
"q. c #5A783F",
"w. c #628245",
"e. c #526D39",
"r. c #4D6636",
"t. c #563A36",
"y. c #494E38",
"u. c #535B34",
"i. c #5E3534",
"p. c #4A2B3A",
"a. c #4D2C39",
"s. c #55703B",
"d. c #668848",
"f. c #5C4B33",
"g. c #584035",
"h. c #6D8E45",
"j. c #5E7B3B",
"k. c #618044",
/* pixels */
"                                                                ",
"                            . X o O                             ",
"                          . o + @ + #                           ",
"                        $ % & o o o o #                         ",
"                        * + = - + o o ;                         ",
"                      : > , < 1 2 3 4 5 6                       ",
"                      7 8 9 0 q w 0 e r t                       ",
"                      y u i p p p a > s d                       ",
"                    f g h j k g o o l 0 z x                     ",
"                    p c v b n > v 5 m m s 6                     ",
"                  M o > m m N > > > > N s x                     ",
"                  B o - > V C C V > Z n A S 6                   ",
"      D           F G H - > J A K > o o v L P                   ",
"      D           x I G H U Y T R & & T V E r W                 ",
"      D   D     Q o ! ~ ^ y > > p r C m m / r 6                 ",
"      D   D     Q ( o ) > > > > > > > _ o 5 r 6                 ",
"          D     Q s c 0 n ` o 4 2 > ' ] ] r [ {                 ",
"                r r s } | ' c 2 > > | p  ...5 x                 ",
"                ..X.N Y ` h _ o.} | O._ 4 N E r                 ",
"                +.o @.r ~ ^ #.$.T %.0 &.*.C s r           D     ",
"                =.+ & -.r r r r r p p ..X.Y > r         D   D   ",
"                f ;.:.3 Z Z >.,.n <.& & 1.2.p r           D     ",
"                  3.C 4.' > > p > > > > p r r $                 ",
"                    6 r s } E r r r r r r r W                   ",
"                        x r 5.6.6.6.6                           ",
"              7.          8.9.0.0.0.q.                          ",
"            7.  7.  w.e.r.t.9.9.0.0.y.r.r.q.                    ",
"              7.  w.r.r.u.y.9.i.0.p.a.u.r.r.s.                  ",
"                  d.r.r.r.f.0.a.6.6.g.r.r.r.h.                  ",
"                    d.s.r.u.r.r.r.r.y.r.j.k.D                   ",
"                          d.k.k.k.k.k.  D   D                   ",
"                                        D                       "
};
